# This file uses centimeters as units for non-parametric coordinates.

mtllib grassBlock.mtl
g default
v -0.351929 -0.351929 0.351929
v 0.351929 -0.351929 0.351929
v -0.351928 -0.351929 -0.351929
v 0.351928 -0.351929 -0.351929
v 0.351929 0.161946 -0.351928
v -0.351929 0.161946 -0.351928
v -0.351929 0.161946 0.351929
v 0.351929 0.161946 0.351929
v -0.356929 0.161946 0.356929
v 0.356929 0.161946 0.356929
v 0.356929 0.356929 0.356928
v -0.356929 0.356929 0.356928
v 0.356929 0.356929 -0.356929
v -0.356929 0.356929 -0.356929
v 0.356929 0.161946 -0.356929
v -0.356929 0.161946 -0.356929
vt 0.375000 0.041838
vt 0.625000 0.041838
vt 0.375000 0.227850
vt 0.625000 0.227850
vt 0.375000 0.477850
vt 0.625000 0.477850
vt 0.875000 0.041838
vt 0.125000 0.041838
vt 0.625000 0.045329
vt 0.875000 0.224358
vt 0.125000 0.224358
vt 0.375000 0.045329
vt 0.375000 0.224358
vt 0.625000 0.224358
vt 0.851971 0.965144
vt 0.851971 0.567053
vt 0.960705 0.567053
vt 0.960705 0.965144
vt 0.028466 0.963796
vt 0.028466 0.565704
vt 0.137201 0.565704
vt 0.137201 0.963796
vt 0.309109 0.570012
vt 0.707200 0.570012
vt 0.707200 0.968104
vt 0.309109 0.968104
vt 0.014514 -0.535682
vt 0.464318 -0.535682
vt 0.467513 -0.532487
vt 0.011319 -0.532487
vt 0.464318 -0.985486
vt 0.467513 -0.988681
vt 0.014514 -0.985486
vt 0.011319 -0.988681
vt 0.163511 0.968104
vt 0.163511 0.570012
vt 0.272246 0.570012
vt 0.272246 0.968104
vt 0.730390 0.965074
vt 0.730390 0.566983
vt 0.839124 0.566983
vt 0.839124 0.965074
vn 0.000000 0.000003 1.000000
vn 0.000000 0.000003 1.000000
vn 0.000000 0.000003 1.000000
vn 0.000000 0.000003 1.000000
vn 0.000000 1.000000 0.000000
vn 0.000000 1.000000 0.000000
vn 0.000000 1.000000 0.000000
vn 0.000000 1.000000 0.000000
vn 0.000000 0.000000 -1.000000
vn 0.000000 0.000000 -1.000000
vn 0.000000 0.000000 -1.000000
vn 0.000000 0.000000 -1.000000
vn 0.000000 -1.000000 -0.000000
vn 0.000000 -1.000000 -0.000000
vn 0.000000 -1.000000 -0.000000
vn 0.000000 -1.000000 -0.000000
vn 1.000000 -0.000000 -0.000000
vn 1.000000 -0.000000 -0.000000
vn 1.000000 -0.000000 -0.000000
vn 1.000000 0.000000 -0.000000
vn -1.000000 0.000000 -0.000000
vn -1.000000 0.000000 -0.000000
vn -1.000000 0.000000 -0.000000
vn -1.000000 0.000000 -0.000000
vn 0.000000 0.000001 -1.000000
vn 0.000000 0.000001 -1.000000
vn 0.000000 0.000001 -1.000000
vn 0.000000 0.000001 -1.000000
vn -1.000000 -0.000001 -0.000000
vn -1.000000 -0.000000 0.000000
vn -1.000000 -0.000001 -0.000000
vn -1.000000 0.000000 0.000000
vn 0.000000 0.000000 1.000000
vn 0.000000 0.000000 1.000000
vn 0.000000 0.000000 1.000000
vn 0.000000 0.000000 1.000000
vn 1.000000 0.000000 -0.000000
vn 1.000000 -0.000001 0.000000
vn 1.000000 -0.000000 -0.000000
vn 1.000000 -0.000001 0.000000
vn 0.000010 -1.000000 -0.000010
vn -0.000010 -1.000000 -0.000013
vn 0.000010 -1.000000 -0.000010
vn -0.000010 -1.000000 -0.000013
vn -0.000011 -1.000000 0.000010
vn 0.000010 -1.000000 0.000010
vn -0.000011 -1.000000 0.000010
vn 0.000010 -1.000000 0.000010
s 1
g pCube1
usemtl lambert2SG
f 9/35/1 10/36/2 12/38/3
f 12/38/3 10/36/2 11/37/4
s 2
f 12/23/5 11/24/6 14/26/7
f 14/26/7 11/24/6 13/25/8
s 3
f 14/39/9 13/40/10 16/42/11
f 16/42/11 13/40/10 15/41/12
s 4
f 3/3/13 4/4/14 1/5/15
f 1/5/15 4/4/14 2/6/16
s 5
f 10/15/17 15/16/18 11/18/19
f 11/18/19 15/16/18 13/17/20
s 6
f 16/19/21 9/20/22 14/22/23
f 14/22/23 9/20/22 12/21/24
s 7
f 6/12/25 5/9/26 3/3/27
f 3/3/27 5/9/26 4/4/28
s 8
f 3/8/29 1/1/30 6/11/31
f 6/11/31 1/1/30 7/13/32
s 9
f 1/1/33 2/2/34 7/13/35
f 7/13/35 2/2/34 8/14/36
s 10
f 2/2/37 4/7/38 8/14/39
f 8/14/39 4/7/38 5/10/40
s 11
f 7/27/41 8/28/42 9/30/43
f 9/30/43 8/28/42 10/29/44
f 5/31/45 6/33/46 15/32/47
f 15/32/47 6/33/46 16/34/48
f 8/28/42 5/31/45 10/29/44
f 10/29/44 5/31/45 15/32/47
f 6/33/46 7/27/41 16/34/48
f 16/34/48 7/27/41 9/30/43
