# This file uses centimeters as units for non-parametric coordinates.

mtllib hp.mtl
g default
v 0.000194 -0.500000 0.000000
v 1.131369 -0.500000 0.000000
v 0.000194 0.000000 0.000000
v 1.131369 0.000000 0.000000
v 0.000194 0.500000 0.000000
v 1.131369 0.500000 0.000000
vt 0.000000 0.000000
vt 1.000000 0.000000
vt 0.000000 0.500000
vt 1.000000 0.500000
vt 0.000000 1.000000
vt 1.000000 1.000000
vn 0.000000 0.000000 1.000000
vn 0.000000 0.000000 1.000000
vn 0.000000 0.000000 1.000000
vn 0.000000 0.000000 1.000000
vn 0.000000 0.000000 1.000000
vn 0.000000 0.000000 1.000000
s 1
g pPlane1
usemtl initialShadingGroup
f 1/1/1 2/2/2 4/4/3 3/3/4
f 3/3/4 4/4/3 6/6/5 5/5/6
