# This file uses centimeters as units for non-parametric coordinates.

mtllib NPC1_HAND2.mtl
g default
v -0.200502 1.271793 0.934655
v 0.200502 1.271793 0.934655
v -0.200502 2.326990 0.934655
v 0.200502 2.326990 0.934655
v -0.200502 2.326990 0.636009
v 0.200502 2.326990 0.636009
v -0.200502 1.271793 0.636009
v 0.200502 1.271793 0.636009
vt 0.095940 0.539051
vt 0.095940 0.539051
vt 0.131832 0.640173
vt 0.195400 0.640173
vt 0.131832 0.703740
vt 0.195400 0.703740
vt 0.131832 0.767308
vt 0.195400 0.767308
vt 0.724629 0.208146
vt 0.724629 0.208146
vt 0.095940 0.793323
vt 0.095940 0.793323
vt 0.199855 0.539051
vt 0.199855 0.793323
vt 0.199855 0.539051
vt 0.199855 0.793323
vt 0.684279 0.208146
vt 0.684279 0.208146
vn -0.582482 -0.221359 0.782122
vn 0.582482 -0.221359 0.782122
vn -0.582482 0.221359 0.782122
vn 0.582482 0.221359 0.782122
vn -0.582482 0.221359 -0.782122
vn 0.582482 0.221359 -0.782122
vn -0.582482 -0.221359 -0.782122
vn 0.582482 -0.221359 -0.782122
s 1
g pCube4
usemtl lambert2SG
f 1/1/1 2/2/2 3/11/3
f 3/11/3 2/2/2 4/12/4
f 3/3/3 4/4/4 5/5/5
f 5/5/5 4/4/4 6/6/6
f 5/5/5 6/6/6 7/7/7
f 7/7/7 6/6/6 8/8/8
f 7/9/7 8/10/8 1/17/1
f 1/17/1 8/10/8 2/18/2
f 2/2/2 8/13/8 4/12/4
f 4/12/4 8/13/8 6/14/6
f 7/15/7 1/1/1 5/16/5
f 5/16/5 1/1/1 3/11/3
