# This file uses centimeters as units for non-parametric coordinates.

mtllib NPC1_LEG1.mtl
g default
v -0.200502 0.038755 -0.202629
v 0.200502 0.038755 -0.202629
v -0.200502 1.093952 -0.202629
v 0.200502 1.093952 -0.202629
v -0.200502 1.093952 -0.501275
v 0.200502 1.093952 -0.501275
v -0.200502 0.038755 -0.501275
v 0.200502 0.038755 -0.501275
vt 0.107952 0.545310
vt 0.107952 0.545310
vt 0.131832 0.640173
vt 0.195400 0.640173
vt 0.131832 0.703740
vt 0.195400 0.703740
vt 0.772689 0.132232
vt 0.772689 0.132232
vt 0.696291 0.132232
vt 0.696291 0.132232
vt 0.107952 0.799582
vt 0.107952 0.799582
vt 0.184350 0.799582
vt 0.184350 0.799582
vt 0.184350 0.545310
vt 0.184350 0.545310
vn -0.582482 -0.221359 0.782122
vn 0.582482 -0.221359 0.782122
vn -0.582482 0.221359 0.782122
vn 0.582482 0.221359 0.782122
vn -0.582482 0.221359 -0.782122
vn 0.582482 0.221359 -0.782122
vn -0.582482 -0.221359 -0.782122
vn 0.582482 -0.221359 -0.782122
s 1
g pCube2
usemtl lambert2SG
f 1/1/1 2/2/2 3/11/3
f 3/11/3 2/2/2 4/12/4
f 3/3/3 4/4/4 5/5/5
f 5/5/5 4/4/4 6/6/6
f 5/13/5 6/14/6 7/15/7
f 7/15/7 6/14/6 8/16/8
f 7/7/7 8/8/8 1/9/1
f 1/9/1 8/8/8 2/10/2
f 2/2/2 8/16/8 4/12/4
f 4/12/4 8/16/8 6/14/6
f 7/15/7 1/1/1 5/13/5
f 5/13/5 1/1/1 3/11/3
